#!OML:ASF H:\charlestonDancing\Project 1\Capture day 1\Session 1\femaleDancer.ASF
:FULLY-SPECIFIED
:DEGREES
333
root 0.958301 18.0273 -2.04364 -176.091 -110.696 186.379
lowerback 16.6761 -1.66456 3.35582
upperback 2.89747 -1.60789 1.63465
thorax -6.28438 -0.887875 0.193107
lowerneck 10.3601 -17.7348 -10.4801
upperneck -9.97743 -24.4956 8.02007
head -2.3857 -12.307 4.67939
rclavicle 4.09496e-014 7.95139e-016
rhumerus -31.5 -0.607585 -76.5831
rradius 31.9821
rwrist 21.8959
rhand -36.8851 -40.3334
rfingers 7.12502
rthumb -9.96379 -70.0776
lclavicle 4.09496e-014 7.95139e-016
lhumerus -42.9261 23.7582 21.4512
lradius 145.129
lwrist -0.63063
lhand -8.90611 -1.58071
lfingers 7.12502
lthumb 17.0368 27.6922
rfemur -31.9503 -7.99362 20.3744
rtibia 34.3164
rfoot -12.6664 -1.53951
rtoes -12.592
lfemur -18.4426 -11.6843 -23.7621
ltibia 31.1902
lfoot -4.50052 -19.2577
ltoes 9.09029
334
root 1.07876 17.8871 -2.01887 -174.677 -108.696 184.365
lowerback 16.9571 -1.67108 3.06858
upperback 2.60451 -1.65081 1.47454
thorax -6.75009 -0.906667 0.209283
lowerneck 11.3042 -17.204 -10.8202
upperneck -9.71607 -23.9354 7.75504
head -2.49604 -12.0047 4.73761
rclavicle 2.38542e-014 -3.10104e-014
rhumerus -32.773 0.38203 -78.1403
rradius 30.0105
rwrist 22.7201
rhand -36.6926 -39.6929
rfingers 7.12502
rthumb -9.77809 -69.4459
lclavicle 2.38542e-014 -3.10104e-014
lhumerus -43.4025 23.1004 18.2328
lradius 145.943
lwrist -0.0962722
lhand -8.90392 0.708611
lfingers 7.12502
lthumb 17.0389 29.9814
rfemur -33.3633 -7.69319 21.3012
rtibia 36.5446
rfoot -12.9344 -0.0052467
rtoes -9.9784
lfemur -18.3888 -11.2485 -23.4797
ltibia 32.5667
lfoot -12.3884 -16.7526
ltoes -13.8186
335
root 1.21341 17.7463 -1.98546 -172.737 -106.742 181.623
lowerback 17.5953 -1.58075 3.20354
upperback 2.44824 -1.48862 1.29656
thorax -7.27128 -0.838709 -0.0731275
lowerneck 12.054 -17.0726 -10.6184
upperneck -10.0736 -23.8138 7.62753
head -2.76963 -11.9321 4.79019
rclavicle 2.70347e-014 1.03368e-014
rhumerus -34.1795 0.44864 -79.2278
rradius 28.8666
rwrist 23.7684
rhand -36.3212 -38.419
rfingers 7.12502
rthumb -9.41969 -68.1885
lclavicle 2.70347e-014 1.03368e-014
lhumerus -43.1943 22.5813 15.4692
lradius 146.573
lwrist 0.257031
lhand -8.97289 2.89789
lfingers 7.12502
lthumb 16.9725 32.1764
rfemur -34.6305 -7.33696 22.23
rtibia 38.8617
rfoot -12.7234 1.50873
rtoes -8.0212
lfemur -18.5705 -11.1288 -23.144
ltibia 34.5576
lfoot -11.9693 -17.5578
ltoes 0.146623
336
root 1.35185 17.652 -1.94784 -170.281 -105.081 178.026
lowerback 18.4084 -1.49541 3.40445
upperback 2.66546 -1.32154 1.33282
thorax -7.47731 -0.770352 -0.171049
lowerneck 12.0549 -17.0097 -10.5268
upperneck -10.4504 -23.7305 7.60539
head -2.90567 -11.8835 4.80472
rclavicle -9.93923e-015 1.90833e-014
rhumerus -35.1918 -0.021526 -79.6639
rradius 28.2094
rwrist 24.916
rhand -35.7889 -37.2621
rfingers 7.12502
rthumb -8.90608 -67.0542
lclavicle -9.93923e-015 1.90833e-014
lhumerus -42.7911 22.6421 13.3106
lradius 147.025
lwrist 0.491772
lhand -8.75028 4.62286
lfingers 7.12502
lthumb 17.1868 33.8828
rfemur -35.3258 -7.0027 23.1152
rtibia 41.0248
rfoot -12.7305 2.62137
rtoes -8.82497
lfemur -19.0685 -11.0021 -22.7672
ltibia 36.9253
lfoot -14.1614 -15.4528
ltoes -2.89414
337
root 1.48505 17.564 -1.91701 -168.683 -103.679 175.049
lowerback 19.4358 -1.44115 3.38086
upperback 2.98548 -1.23914 1.35153
thorax -7.6819 -0.739039 -0.138656
lowerneck 11.9379 -16.9564 -10.3753
upperneck -10.7257 -23.6691 7.33315
head -3.03004 -11.8331 4.72984
rclavicle -2.38542e-015 -1.11319e-014
rhumerus -36.3148 -0.775223 -79.7637
rradius 27.8288
rwrist 25.9959
rhand -35.0849 -36.9902
rfingers 7.12502
rthumb -8.22668 -66.81
lclavicle -2.38542e-015 -1.11319e-014
lhumerus -42.3529 22.9459 11.2895
lradius 147.24
lwrist 1.17936
lhand -7.86482 5.80206
lfingers 7.12502
lthumb 18.0389 34.9855
rfemur -35.7674 -6.62316 23.5353
rtibia 43.5064
rfoot -13.0067 3.45269
rtoes -12.1866
lfemur -18.9721 -10.7717 -22.6939
ltibia 38.8239
lfoot -15.4962 -13.8793
ltoes -4.77962
338
root 1.60365 17.492 -1.89537 -163.954 -102.708 168.766
lowerback 20.613 -1.51858 4.19607
upperback 3.23727 -1.12746 1.53483
thorax -8.0461 -0.719186 -0.40847
lowerneck 12.0122 -16.8607 -10.3834
upperneck -10.9074 -23.5901 7.06065
head -3.13894 -11.7702 4.68313
rclavicle -8.05078e-015 1.33186e-014
rhumerus -37.6594 -1.6449 -79.6878
rradius 27.3798
rwrist 26.9751
rhand -34.4194 -37.4046
rfingers 7.12502
rthumb -7.58444 -67.2486
lclavicle -8.05078e-015 1.33186e-014
lhumerus -41.8151 23.1206 9.62615
lradius 147.268
lwrist 2.31241
lhand -6.82908 6.88834
lfingers 7.12502
lthumb 19.0352 35.9769
rfemur -35.8262 -6.28709 24.6355
rtibia 45.8736
rfoot -13.7597 4.29741
rtoes -17.0805
lfemur -18.4269 -10.3507 -21.7998
ltibia 40.2385
lfoot -16.4701 -12.9478
ltoes -6.20382
